<svg id="Calque_1" data-name="Calque 1" xmlns="http://www.w3.org/2000/svg" viewBox="0 0 594.79 208.04"><defs><style>.cls-1{fill:#49ffc1;}.cls-2,.cls-3{fill:#fff;}.cls-3{font-size:12px;font-family:MyriadPro-Regular, Myriad Pro;}</style></defs><title>footer svg go follow</title><g id="Calque_2" data-name="Calque 2"><rect class="cls-1" y="4.04" width="594.79" height="183"/></g><path class="cls-2" d="M76.5,92.72c2.54-10.65,8.11-19.82,14-28.86,1.63-2.5,2.91-5.18,2.46-8.48-.36-2.61,2.92-4.31,6.16-3.46,5.09,1.34,9.09,7.08,8.54,12.72,1.55-1.24,2.85-2.4,4.27-3.38,3.47-2.4,6.92-4.83,10.52-7a10.62,10.62,0,0,1,9-.83c4.19,1.33,5.75,3.9,5.83,10,2.29-1.62,4.37-3.23,6.6-4.62a68,68,0,0,1,8.75-4.94,12,12,0,0,1,6-.79c5.06.65,7.37,4.58,6.09,9.94-1.45,6-5.27,10.76-8.81,15.64-3,4.18-5.93,8.46-8.81,12.75a8.87,8.87,0,0,0-1.3,3.06c-.54,2.6,1.26,4.21,3.62,3a24,24,0,0,0,6.37-4.3C161.88,87,168.17,81,172.09,73c2.08-4.24,4.82-8.15,7.08-12.3a8.62,8.62,0,0,0,.85-3.95c0-3.65,2-5.57,5.5-4.63a13,13,0,0,1,8.94,7.6c1.52,3.54-.34,6.42-2.26,9.07-3.73,5.17-7.84,10.07-11.45,15.32a55,55,0,0,0-4.46,9,8,8,0,0,0-.46,3.29c0,2.13,1.15,2.85,3,1.77a20.3,20.3,0,0,0,4.95-3.69q12-13.21,23.7-26.65c3.27-3.77,6.18-7.86,9.23-11.82,3.59-4.67,7.8-5.49,12-2.32,2.79,2.11,3.49,5.27,1.53,8.19-3.55,5.29-7.26,10.47-10.91,15.69-3.06,4.37-6.19,8.71-9.2,13.12a10,10,0,0,0-1.62,3.75,3.65,3.65,0,0,0,.73,3,3.33,3.33,0,0,0,3,.1,27.65,27.65,0,0,0,6-4.31c5-5,9.65-10.34,14.59-15.4,1-1,2.64-1.45,4-2.15.09,1.63.59,3.39.16,4.87a12.32,12.32,0,0,1-2.81,4.83q-7.35,7.82-15,15.35c-5.93,5.85-10.2,6.12-17.15,1.07l-7.06,9.09c6,0,11.41-.28,16.78.12a16.92,16.92,0,0,1,7.67,2.62c4.59,3,4.69,9.79.62,13.5-1.28,1.17-2.37,1-3.65,0-7.64-6-16.47-8.45-26-8.57a6.26,6.26,0,0,0-3.76,1.53c-5.95,5.09-11.56,10.59-17.72,15.41a23.5,23.5,0,0,1-15.85,5.36c-5.35-.28-9.34-3.79-10.05-8.68a7,7,0,0,1,3.1-7,61.79,61.79,0,0,1,12-7c5.24-2.1,10.89-3.16,16.31-4.84a7.4,7.4,0,0,0,3.5-2.22c3.36-4.26,6.52-8.68,9.74-13.05.14-.19.2-.43.13-.27-3.69,2.15-7.5,4.76-11.64,6.69A8.81,8.81,0,0,1,164,99.22a38.23,38.23,0,0,1-.71-4.85,18.94,18.94,0,0,0-1.48,1.19c-2.15,2.12-4.23,4.31-6.42,6.38-3.94,3.72-8.72,4.45-13,1.71-5.32-3.4-9-10.08-6.64-17.47,2.22-7,6.28-12.78,10.28-18.71a19.56,19.56,0,0,0,1.62-4.31c-1.43.53-3.07.77-4.27,1.63C134.8,71,126.13,77.24,121.13,87a51.54,51.54,0,0,0-3.28,9.68c-.39,1.39,0,2.58,2,2.93,1.78.32,1.64,2.44-.17,4A8.44,8.44,0,0,1,107,100.72,14.15,14.15,0,0,1,105.87,94c.42-6.14,3.13-11.6,5.93-16.95,2-3.73,4.29-7.26,6.32-11a9.58,9.58,0,0,0,.53-3c-.94.24-2.13.19-2.77.75-7.43,6.55-15.13,12.86-22,20-2.79,2.9-3.85,7.57-5.3,11.58-.57,1.57-.8,3.77,2.16,4.23,1.64.26,1.6,2.24,0,3.67a8,8,0,0,1-8,1.51c-3.27-1-5-3.42-6.23-6.42Zm92.62,29.36-.34-.7c-4.18,1.44-8.44,2.69-12.51,4.41a26.35,26.35,0,0,0-6.43,4.21,3.36,3.36,0,0,0-.79,3.14,5.17,5.17,0,0,0,3.18,2,5.06,5.06,0,0,0,3.16-.83C160.86,131.26,165,126.72,169.12,122.08Z" transform="translate(-0.49 4.04)"/><path class="cls-2" d="M289.52,83.12c-7.32-.94-14.53-1.9-21.75-2.75a2.67,2.67,0,0,0-2.11.9c-3.32,4.82-6.91,9.52-9.63,14.67-1.71,3.23-2.24,7.15-3,10.83a2.94,2.94,0,0,0,2.45,3.83c2,.44,1.59,2.31.65,3.27a7.21,7.21,0,0,1-3.94,2c-4.84.6-9.54-3.52-10.16-8.6-.68-5.58.66-10.81,3-15.8,2.48-5.38,5.19-10.64,7.83-16-1.69-1-3.46-1.89-5.08-3-8-5.44-10.46-12.51-7-21.56,5.53-14.41,15.79-24.65,29.26-31.8a43.9,43.9,0,0,1,20.76-5.58c7.23,0,12.94,5.78,11.71,12.06a22.17,22.17,0,0,1-3.32,7.77c-5.86,8.82-11.93,17.51-18,26.18-3.71,5.27-7.61,10.41-11.66,15.94a99.08,99.08,0,0,0,22.42,1.7,3.42,3.42,0,0,0,2.26-1.37q16.1-23.44,32.06-47a29,29,0,0,0,3-5.69,10.35,10.35,0,0,0,.6-4.41c-.2-2.7.83-4.09,3.57-4.2,6.86-.29,12.49,7.86,9.63,14.15a52.3,52.3,0,0,1-4.43,7.57Q325.94,55,313.13,73.67a8.08,8.08,0,0,0-1.44,3.22c3.65-.65,7.3-1.26,10.94-2,1.6-.31,3.13-1.09,4.73-1.22a2.12,2.12,0,0,0,2.18-1.95c2.33-9.6,7.79-17.08,15.39-23.26A37.13,37.13,0,0,1,362,40.62a39.81,39.81,0,0,1,8.54-.12c1.56.06,1.95,2.29.93,3.85-1.44,2.2-3.69,1.55-5.58,1.55a30.14,30.14,0,0,0-18.29,6,39.42,39.42,0,0,0-10.65,11.33,30.14,30.14,0,0,0-4.73,15.51c-.14,10.65,4.67,18.52,15.41,22.19,5.35,1.83,11,1.12,16.42-.61a34,34,0,0,0,16.68-11.9c3.13-4,5.84-8.17,6.51-13.31a87.91,87.91,0,0,0,.73-9.42,3.62,3.62,0,0,1,2.36-3.56c2.15-1,3.19-.44,3.39,1.89.65,7.61-1.55,14.37-5.29,21a39.35,39.35,0,0,1-10.28,11.91c-6,4.63-12.68,8.52-20.77,8.18-4.15-.17-8.49,0-12.38-1.21-3.31-1-6.41-3.4-9.05-5.79a20,20,0,0,1-6.47-11.91c-.35-2.26-.45-4.56-.68-7-6.1,3.47-12.93,3.44-19.69,3.58a4,4,0,0,0-3.77,2c-2.25,3.57-4.67,7-6.92,10.61a43.08,43.08,0,0,0-2.77,5.25c-5.11,11.34-.5,19.43,11.92,20.44a165.68,165.68,0,0,0,17.3.27c23.09-.54,45.75-4.41,68.38-8.7,18.4-3.48,37-5.94,55.74-5.39a117.35,117.35,0,0,1,18.86,2.6c2.41.47,4.75,2,6.8,3.52,2.95,2.15,3.52,5.16,2.07,8.51a17.65,17.65,0,0,1-1.38,2.48c-2.38,3.72-3.27,3.71-6.1.53-4.22-4.75-10-6.94-15.95-7.79a84.47,84.47,0,0,0-19.28-.84c-18.87,1.71-37.7,4-56.52,6.14-22.68,2.6-45.28,6.16-68.21,5.94-5.92-.06-11.67-.85-17-3.66-6.51-3.43-9.9-8.84-10.4-16.14a36.6,36.6,0,0,1,5.32-21.48C288.06,85.68,288.89,84.22,289.52,83.12Zm-33.27-13c.38-.46.62-.7.81-1q11.16-16.29,22.29-32.59c2.46-3.63,4.81-7.34,7.08-11.08.42-.69.24-1.74.34-2.62-.89,0-2-.42-2.63-.06a36.5,36.5,0,0,0-6.45,4.17c-9.54,8.29-17.38,18.12-24.75,28.32a19,19,0,0,0-2.35,5.4,5.48,5.48,0,0,0,1.56,5.91C253.44,67.78,254.84,68.89,256.25,70.09Z" transform="translate(-0.49 4.04)"/><path class="cls-2" d="M524.85,79.15c1,5.36-1.11,8.55-4.43,10.95-4.86,3.51-9.79,7-14.93,10a32.64,32.64,0,0,1-15.53,5c-6.41.2-12.59-3.37-13.48-11a7,7,0,0,0-.61-1.62c-7.29,4.76-14.37,9.82-23,11.89a17.4,17.4,0,0,1-11.61-.7c-6.23-2.76-7.7-10.88-7-15.34.38-2.3,1.07-4.55,1.58-6.68l-7-1c-3.89,5-7.45,10.16-11.71,14.7-3.29,3.51-6.68,7.18-11.84,8.39-5.92,1.38-12.18-2.59-14.18-7.8-2.23-5.8-.59-11.22,1.37-16.55a100.13,100.13,0,0,1,16.17-27.95A140.51,140.51,0,0,1,423.36,36.1a15.83,15.83,0,0,1,7.45-3.31c5.34-1.05,8.45,4,6.42,8.77a43.88,43.88,0,0,1-6.39,10.52,132.79,132.79,0,0,1-20.43,19.76c-1.68,1.33-2.47,4-3.28,6.16-1.67,4.49-3.1,9.06-4.55,13.63a6.65,6.65,0,0,0-.06,2.32c.16,2.8,1.54,3.74,3.67,2C410,92.7,413.42,89,417,85.5a17.19,17.19,0,0,0,1.83-2.13c2.19-3,3.9-5.65,1.5-9.89-2.6-4.57,1.31-10.45,6.63-11.3a9.54,9.54,0,0,1,3.22-.36c3.25.67,4.29,3.12,3.28,7.31-.25,1-.58,2.07-.9,3.21l9.82-.83c3.94-2.91,8.27-6.33,12.82-9.42,6.5-4.43,13.23-2.5,16.6,4.54,1.56,3.26.47,8.12-2.47,11.28C464.81,82.78,459,85.16,452.83,87c-1.69.51-3.46.71-5.19,1.09-1.94.42-4,4.21-3.54,6.58.45,2.55,2.55,3.88,5.45,3.24A55.8,55.8,0,0,0,476.17,84a7.48,7.48,0,0,0,1.67-2.22c4.32-9.28,11.81-15.38,20.41-20.35,7.33-4.24,13.66.14,15.6,5.84,1.37,4,.22,7.68-2.71,10.76-5.12,5.38-11.68,8-18.72,9.48-3.36.7-5.79,1.64-6.19,5.63-.32,3.26,1.59,5.49,4.84,5,6.65-1,12.57-4,18.15-7.48,4.08-2.52,7.52-6.06,11.33-9A33.54,33.54,0,0,1,524.85,79.15Zm-75.08,3.93c7-3.31,13.3-7.33,16.2-15C459.08,71.48,454,76.86,449.77,83.08Zm58.11-15c-6.89,3.4-11.92,8.8-16.21,15C498.65,79.78,505,75.77,507.88,68.07Zm-89.51-10c7.59-5.29,15.17-16.27,14.1-20.63Z" transform="translate(-0.49 4.04)"/><path class="cls-2" d="M355.5,77.08A16.75,16.75,0,0,1,357.35,74c4.39-4.66,8.7-9.41,13.36-13.78,2.78-2.61,2.38-5.9,2.72-9,.51-4.56,1.89-8.42,5.27-11.7s6.24-7.3,9.76-10.5c2.1-1.92,3.28-4.95,6.93-5.35,3.89-.43,5.37.58,4.69,4.47-.39,2.22-.74,4.46-1.07,6.44,2.51-.31,5.06-.64,7.62-.93,1.75-.2,3.58.12,3.78,2.08.17,1.63,0,3.83-1,4.94a100.41,100.41,0,0,1-8.48,8c-3.56,3.22-7.4,6.19-10.66,9.69-1.76,1.89-3.76,1.07-5.58,1.59-2.65.76-5.53.72-8.27,1.21a4.52,4.52,0,0,0-2,1.41q-7,6.89-13.85,13.85C359.27,77.79,358,78.65,355.5,77.08Zm38.12-46.5c-4.09,4.4-7.82,8.69-11.87,12.66-2.38,2.33-3.57,5.06-2.51,8.65,4.07-4.19,8-8.24,11.94-12.33a4,4,0,0,0,.93-1.77C392.64,35.53,393.07,33.24,393.62,30.58ZM382,55c3.47-.28,6.13-.35,8.35-2.59,4-4,8.24-7.86,12.63-12-1.59.31-2.84.47-4,.8-1.59.45-3.53.61-4.65,1.63C390.23,46.55,386.45,50.56,382,55Z" transform="translate(-0.49 4.04)"/><path class="cls-2" d="M340.74,78.33c-.44,6,2.42,10.37,7.27,13.25a13.56,13.56,0,0,0,7.27,1.55c5.51-.29,10.59-2,14.53-6.25a25.15,25.15,0,0,0,6.72-14.35c.23-1.82-.63-3.8-.28-5.56.21-1,1.83-1.8,2.81-2.69.6.76,1.51,1.44,1.74,2.3,1.39,5.22.19,10.2-2,14.88C374.4,90.61,366.55,95.31,357,97.24a15.43,15.43,0,0,1-7.06-.62,16.93,16.93,0,0,1-10-7.14,19.16,19.16,0,0,1-2.42-15.29c2-8.21,7.08-14.31,14.13-18.48,3.17-1.88,6.92-3.48,11-2.9,1.61.23,3.33-.12,4.89.26.88.21,2.29,1.8,2.15,2A7.49,7.49,0,0,1,367,58a4.91,4.91,0,0,1-3,.05c-5.46-1.12-9.94,1.22-14.28,4s-6.35,7.34-8.26,11.85C340.85,75.19,340.95,76.82,340.74,78.33Z" transform="translate(-0.49 4.04)"/><path class="cls-2" d="M356.21,83.89c5.17.73,7.93-3.87,9-7.71.07-.24-.09-.62,0-.76,1-1.06,2.11-3,3.07-2.93,2.35.14,1.74,2.43,1.4,3.86C368.19,82.93,362,88.15,356,88.16c-5.06,0-9.71-3.35-10-8.31-.61-9,5.84-14.34,13-16,.72-.16,1.77,1.11,2.66,1.71-1,1.1-1.85,2.5-3.08,3.24-1.75,1.06-4,1.38-5.67,2.47-2.71,1.73-3.72,7.58-2,10.25A4.92,4.92,0,0,0,356.21,83.89Z" transform="translate(-0.49 4.04)"/><text class="cls-3" transform="translate(236.17 205.04)"><tspan xml:space="preserve">    </tspan></text><path class="cls-2" d="M286.52,159.28c-.68-.34-1-.14-1.35.48a8.72,8.72,0,0,1-5.06,4.46c-3.09,1-5.59-1.18-5-4.37.7-4.06,5.06-8.14,9.15-8.54a4,4,0,0,1,1.21.1,1.67,1.67,0,0,1,1.33,1.37,1.31,1.31,0,0,1-.64,1.47c.44.44.44.44,0,4,.45-.27.89-.39,1.08-.68,1.34-2,2.64-4,3.94-6,1.17-1.79,2.34-3.59,3.46-5.41a2.15,2.15,0,0,0,.23-1.15c0-.69.19-1,.9-1a2.47,2.47,0,0,1,2.2,3,8.25,8.25,0,0,1-1,1.83c-2.23,3.26-4.51,6.48-6.73,9.75a14.35,14.35,0,0,0-1.3,2.48,1.16,1.16,0,0,0,.13,1,1.35,1.35,0,0,0,1,.12,2,2,0,0,0,1-.53,15.93,15.93,0,0,0,2.82-3.62,57.07,57.07,0,0,1,3-5c1.49-2.3,3.06-4.55,4.54-6.86a2.54,2.54,0,0,0,.27-1.35c0-.65.32-.86.87-.89a2.46,2.46,0,0,1,2.24,3,8.06,8.06,0,0,1-1,1.77c-2.23,3.26-4.51,6.48-6.73,9.75a14.79,14.79,0,0,0-1.33,2.55,1.18,1.18,0,0,0,.16,1c.17.19.67.19,1,.12a2.06,2.06,0,0,0,1-.52,12.51,12.51,0,0,0,2.64-3.46,11.22,11.22,0,0,1,8.41-7,2.65,2.65,0,0,1,2.14.37,1.5,1.5,0,0,1,.1,2.48c.83,1.27-.05,2.54,0,3.88.72-.12,1.4-.21,1.8-1s.87-1.39,1.29-2.09a3.21,3.21,0,0,0,.67-2.08c-.08-.69.74-1.1,1.56-.84a2.3,2.3,0,0,1,1.28,3.68c-.88,1.24-1.87,2.39-2.71,3.65a10.66,10.66,0,0,0-1.05,2.27c-.1.27.06.63.11,1,.3-.09.69-.1.88-.29,1.54-1.52,3.09-3,4.53-4.65a17.12,17.12,0,0,0,1.83-2.75,2.57,2.57,0,0,0,.27-1.16c0-.73.41-1.09,1.15-1a2.37,2.37,0,0,1,1.68,3.82c-.74,1-1.59,1.95-2.25,3a10.18,10.18,0,0,0-.94,2.31c-.07.22.11.52.17.79a2.05,2.05,0,0,0,.72-.25,20.3,20.3,0,0,0,2.3-2.18c1.69-2,3.3-4.14,4.92-6.24.91-1.18,1.86-1.36,2.89-.51a1.18,1.18,0,0,1,.33,1.66A7.09,7.09,0,0,1,331.3,157c-2.94,2.25-5.94,4.43-8.93,6.61a5.17,5.17,0,0,1-1.44.64c-.93.3-2.17-.71-2.3-1.86a10,10,0,0,1,0-1c-1,.64-1.86,1.26-2.78,1.81a12.27,12.27,0,0,1-1.79.91,1.88,1.88,0,0,1-2.63-1.65,11.59,11.59,0,0,1,.36-2.47,5.21,5.21,0,0,1,.21-.68c-1.21-.3-1.18-.28-1.79.71a9.19,9.19,0,0,1-3.86,3.78c-3,1.37-4.69.79-6.16-2.11l-1.37,1.48a2.78,2.78,0,0,1-4.06.16,17.34,17.34,0,0,1-1.42-1.75c-.48.52-1,1.09-1.52,1.65a2.81,2.81,0,0,1-3.56.46,3.8,3.8,0,0,1-1.78-4C286.49,159.54,286.5,159.42,286.52,159.28Zm-.7-5.12c-.08-1-.41-1.18-1.28-.85a9.53,9.53,0,0,0-4,3.13,10.38,10.38,0,0,0-2.53,5,1.83,1.83,0,0,0,.37,1.48,1.87,1.87,0,0,0,1.53,0,8.34,8.34,0,0,0,3.41-2.82,1.6,1.6,0,0,0,.13-2.11,2,2,0,0,1,0-2.18A3.18,3.18,0,0,1,285.81,154.16Zm17.27,7.72c0,1,.55,1.43,1.57,1.15a3.32,3.32,0,0,0,.67-.25,9.43,9.43,0,0,0,3.22-2.84,1.5,1.5,0,0,0,.09-1.92,2.15,2.15,0,0,1,.45-2.92,8.54,8.54,0,0,1,1.42-.79c.18-.11.44-.38.4-.47s-.3-.56-.52-.61a1.59,1.59,0,0,0-.89.19,11.14,11.14,0,0,0-4.81,4.44A8.37,8.37,0,0,0,303.08,161.87Z" transform="translate(-0.49 4.04)"/><path class="cls-2" d="M273.64,154.19a11.12,11.12,0,0,1,1.82.3,2.25,2.25,0,0,1,1.06.77c.36.51.09.89-.54.83-.93-.09-1.86-.22-2.79-.35a1,1,0,0,0-1.08.5c-1.53,2.42-3.15,4.79-4.62,7.24a9.51,9.51,0,0,0-.8,2.66c0,.19.16.45.29.66s.5.48.45.56a1.4,1.4,0,0,1-.66.66,2.07,2.07,0,0,1-2.32-1.06,2.7,2.7,0,0,1-.1-2.38c.75-1.84,1.55-3.67,2.41-5.47.47-1,1.11-1.91,1.76-3a6.54,6.54,0,0,0-3.77,2.14c-.31.35-.56,1.11-1.11.78a2.77,2.77,0,0,1-1.09-1.49,1.75,1.75,0,0,1,1.23-2.18,27,27,0,0,1,3.26-.88,3,3,0,0,1,1-.12c1.31.14,2-.54,2.66-1.59,1.74-2.74,3.61-5.4,5.43-8.1l.47-.73a1.35,1.35,0,0,0-.39,0,81.1,81.1,0,0,0-12,5.54,20.36,20.36,0,0,0-2.92,2.21c-.43.37-1,.93-.09,1.49a.9.9,0,0,1-.22.63,1.39,1.39,0,0,1-1.93-.82,3.34,3.34,0,0,1,.45-3.42,8.84,8.84,0,0,1,2.16-1.89,41.37,41.37,0,0,1,14.82-5.18,6.61,6.61,0,0,1,1.94,0,1.74,1.74,0,0,1,1.43,2.61,4.89,4.89,0,0,1-.55.93l-5.3,7.49C273.91,153.74,273.79,153.95,273.64,154.19Z" transform="translate(-0.49 4.04)"/><rect class="cls-2" x="67.79" y="160.12" width="181.46" height="2.82"/><rect class="cls-2" x="338.76" y="160.12" width="181.46" height="2.82"/><text x="-0.49" y="4.04"></text></svg>