<svg id="Calque_1" data-name="Calque 1" xmlns="http://www.w3.org/2000/svg" viewBox="0 0 457.84 191.48"><defs><style>.cls-1,.cls-2{fill:#fff;}.cls-2{font-size:12px;font-family:MyriadPro-Regular, Myriad Pro;}</style></defs><title>logo footer follow svg</title><path class="cls-1" d="M76.5,179.72V99.52H526.12V228.8H76.5V185.41c1.19,3,3,5.45,6.23,6.42a8,8,0,0,0,8-1.51c1.64-1.43,1.68-3.41,0-3.67-3-.47-2.73-2.66-2.16-4.23,1.45-4,2.52-8.68,5.3-11.58,6.84-7.13,14.54-13.43,22-20,.64-.57,1.84-.52,2.77-.75a9.58,9.58,0,0,1-.53,3c-2,3.7-4.37,7.23-6.32,11-2.8,5.35-5.51,10.81-5.93,16.95a14.15,14.15,0,0,0,1.18,6.71,8.44,8.44,0,0,0,12.59,2.86c1.81-1.51,1.95-3.64.17-4-1.93-.35-2.35-1.54-2-2.93a51.54,51.54,0,0,1,3.28-9.68c5-9.77,13.67-16,22.3-22.21,1.2-.86,2.83-1.1,4.27-1.63a19.56,19.56,0,0,1-1.62,4.31c-4,5.93-8.06,11.75-10.28,18.71-2.35,7.38,1.31,14.07,6.64,17.47,4.29,2.74,9.07,2,13-1.71,2.19-2.07,4.27-4.26,6.42-6.38a18.94,18.94,0,0,1,1.48-1.19,38.23,38.23,0,0,0,.71,4.85,8.81,8.81,0,0,0,12.14,5.28c4.13-1.93,7.95-4.54,11.64-6.69.07-.16,0,.08-.13.27-3.22,4.37-6.38,8.79-9.74,13.05a7.4,7.4,0,0,1-3.5,2.22c-5.42,1.67-11.07,2.74-16.31,4.84a61.79,61.79,0,0,0-12,7,7,7,0,0,0-3.1,7c.71,4.89,4.7,8.4,10.05,8.68A23.5,23.5,0,0,0,169,222.46c6.16-4.81,11.77-10.32,17.72-15.41a6.26,6.26,0,0,1,3.76-1.53c9.55.12,18.38,2.59,26,8.57,1.28,1,2.36,1.15,3.65,0,4.07-3.71,4-10.51-.62-13.5a16.92,16.92,0,0,0-7.67-2.62c-5.37-.4-10.79-.12-16.78-.12l7.06-9.09c7,5.05,11.22,4.79,17.15-1.07q7.64-7.54,15-15.35a12.32,12.32,0,0,0,2.81-4.83c.43-1.49-.07-3.24-.16-4.87-1.35.7-3,1.12-4,2.15-4.94,5.06-9.62,10.37-14.59,15.4a27.65,27.65,0,0,1-6,4.31,3.33,3.33,0,0,1-3-.1,3.65,3.65,0,0,1-.73-3,10,10,0,0,1,1.62-3.75c3-4.42,6.13-8.75,9.2-13.12,3.65-5.22,7.36-10.4,10.91-15.69,2-2.92,1.26-6.08-1.53-8.19-4.2-3.18-8.4-2.35-12,2.32-3,4-6,8-9.23,11.82q-11.69,13.47-23.7,26.65a20.3,20.3,0,0,1-4.95,3.69c-1.87,1.08-3,.36-3-1.77a8,8,0,0,1,.46-3.29,55,55,0,0,1,4.46-9c3.61-5.25,7.72-10.15,11.45-15.32,1.92-2.65,3.78-5.52,2.26-9.07a13,13,0,0,0-8.94-7.6c-3.49-.94-5.48,1-5.5,4.63a8.62,8.62,0,0,1-.85,3.95c-2.27,4.15-5,8.06-7.08,12.3-3.92,8-10.21,14-16.32,20.18a24,24,0,0,1-6.37,4.3c-2.36,1.17-4.16-.44-3.62-3a8.87,8.87,0,0,1,1.3-3.06c2.88-4.29,5.78-8.57,8.81-12.75,3.55-4.88,7.37-9.6,8.81-15.64,1.28-5.36-1-9.29-6.09-9.94a12,12,0,0,0-6,.79,68,68,0,0,0-8.75,4.94c-2.22,1.39-4.31,3-6.6,4.62-.08-6.1-1.64-8.67-5.83-10a10.62,10.62,0,0,0-9,.83c-3.6,2.18-7.05,4.62-10.52,7-1.42,1-2.72,2.14-4.27,3.38.55-5.64-3.45-11.38-8.54-12.72-3.24-.85-6.52.84-6.16,3.46.46,3.3-.83,6-2.46,8.48C84.61,159.9,79,169.07,76.5,179.72Zm213-9.6c-.63,1.1-1.47,2.56-2.32,4a36.6,36.6,0,0,0-5.32,21.48c.5,7.3,3.89,12.71,10.4,16.14,5.33,2.81,11.09,3.61,17,3.66,22.93.22,45.52-3.34,68.21-5.94,18.83-2.16,37.65-4.43,56.52-6.14a84.47,84.47,0,0,1,19.28.84c6,.85,11.73,3,15.95,7.79,2.83,3.18,3.72,3.19,6.1-.53a17.65,17.65,0,0,0,1.38-2.48c1.44-3.35.88-6.36-2.07-8.51-2.05-1.5-4.39-3-6.8-3.52a117.35,117.35,0,0,0-18.86-2.6c-18.78-.55-37.34,1.9-55.74,5.39-22.63,4.29-45.29,8.16-68.38,8.7a165.68,165.68,0,0,1-17.3-.27c-12.41-1-17-9.1-11.92-20.44a43.08,43.08,0,0,1,2.77-5.25c2.25-3.57,4.67-7,6.92-10.61a4,4,0,0,1,3.77-2c6.76-.14,13.59-.12,19.69-3.58.23,2.4.33,4.7.68,7A20,20,0,0,0,336,185.11c2.64,2.39,5.74,4.77,9.05,5.79,3.89,1.19,8.22,1,12.38,1.21,8.08.33,14.76-3.56,20.77-8.18A39.35,39.35,0,0,0,388.43,172c3.74-6.62,5.94-13.38,5.29-21-.2-2.33-1.23-2.91-3.39-1.89a3.62,3.62,0,0,0-2.36,3.56,87.91,87.91,0,0,1-.73,9.42c-.67,5.14-3.38,9.31-6.51,13.31A34,34,0,0,1,364,187.3c-5.41,1.72-11.08,2.43-16.42.61-10.74-3.67-15.55-11.54-15.41-22.19a30.14,30.14,0,0,1,4.73-15.51,39.42,39.42,0,0,1,10.65-11.33,30.14,30.14,0,0,1,18.29-6c1.89,0,4.14.65,5.58-1.55,1-1.56.63-3.79-.93-3.85a39.81,39.81,0,0,0-8.54.12,37.13,37.13,0,0,0-17.06,7.88c-7.6,6.18-13.06,13.65-15.39,23.26a2.12,2.12,0,0,1-2.18,1.95c-1.6.13-3.13.91-4.73,1.22-3.63.72-7.29,1.32-10.94,2a8.08,8.08,0,0,1,1.44-3.22q12.76-18.68,25.5-37.37a52.3,52.3,0,0,0,4.43-7.57c2.86-6.28-2.78-14.43-9.63-14.15-2.74.11-3.78,1.5-3.57,4.2a10.35,10.35,0,0,1-.6,4.41,29,29,0,0,1-3,5.69q-16,23.53-32.06,47a3.42,3.42,0,0,1-2.26,1.37,99.08,99.08,0,0,1-22.42-1.7c4.06-5.53,8-10.67,11.66-15.94,6.09-8.67,12.16-17.36,18-26.18a22.17,22.17,0,0,0,3.32-7.77c1.23-6.28-4.48-12.05-11.71-12.06A43.9,43.9,0,0,0,270,106.15c-13.48,7.15-23.73,17.39-29.26,31.8-3.47,9-1,16.12,7,21.56,1.62,1.1,3.39,2,5.08,3-2.63,5.36-5.35,10.63-7.83,16-2.3,5-3.64,10.22-3,15.8.62,5.08,5.32,9.2,10.16,8.6a7.21,7.21,0,0,0,3.94-2c.95-1,1.31-2.83-.65-3.27a2.94,2.94,0,0,1-2.45-3.83c.72-3.68,1.25-7.59,3-10.83,2.72-5.15,6.31-9.85,9.63-14.67a2.67,2.67,0,0,1,2.11-.9C275,168.22,282.21,169.18,289.52,170.12Zm235.32-4a33.54,33.54,0,0,0-4.28,2.41c-3.81,3-7.25,6.52-11.33,9-5.58,3.45-11.5,6.43-18.15,7.48-3.25.51-5.16-1.72-4.84-5,.39-4,2.83-4.93,6.19-5.63,7-1.47,13.6-4.1,18.72-9.48,2.93-3.08,4.08-6.73,2.71-10.76-1.94-5.7-8.27-10.08-15.6-5.84-8.6,5-16.09,11.07-20.41,20.35a7.48,7.48,0,0,1-1.67,2.22,55.8,55.8,0,0,1-26.62,13.94c-2.9.64-5-.69-5.45-3.24-.42-2.37,1.6-6.16,3.54-6.58,1.73-.38,3.51-.58,5.19-1.09,6.13-1.84,12-4.21,16.48-9.07,2.93-3.17,4-8,2.47-11.28-3.37-7-10.1-9-16.6-4.54-4.54,3.1-8.87,6.51-12.82,9.42l-9.82.83c.32-1.14.65-2.17.9-3.21,1-4.19,0-6.65-3.28-7.31a9.54,9.54,0,0,0-3.22.36c-5.32.85-9.22,6.72-6.63,11.3,2.4,4.24.7,6.87-1.5,9.89A17.19,17.19,0,0,1,417,172.5c-3.56,3.51-7,7.2-10.79,10.41-2.13,1.79-3.51.84-3.67-2a6.65,6.65,0,0,1,.06-2.32c1.45-4.56,2.88-9.14,4.55-13.63.81-2.18,1.6-4.83,3.28-6.16a132.79,132.79,0,0,0,20.43-19.76,43.88,43.88,0,0,0,6.39-10.52c2-4.79-1.08-9.83-6.42-8.77a15.83,15.83,0,0,0-7.45,3.31,140.51,140.51,0,0,0-14.76,15.26,100.13,100.13,0,0,0-16.17,27.95c-2,5.33-3.6,10.75-1.37,16.55,2,5.21,8.26,9.18,14.18,7.8,5.17-1.21,8.56-4.88,11.84-8.39,4.26-4.55,7.82-9.75,11.71-14.7l7,1c-.51,2.13-1.2,4.38-1.58,6.68-.74,4.46.74,12.59,7,15.34a17.4,17.4,0,0,0,11.61.7c8.66-2.07,15.75-7.12,23-11.89a7,7,0,0,1,.61,1.62c.9,7.64,7.07,11.21,13.48,11a32.64,32.64,0,0,0,15.53-5c5.15-3.05,10.07-6.5,14.93-10C523.73,174.7,525.87,171.51,524.85,166.15ZM355.5,164.08c2.49,1.57,3.77.71,5.07-.61q6.87-7,13.85-13.85a4.52,4.52,0,0,1,2-1.41c2.75-.48,5.62-.45,8.27-1.21,1.82-.52,3.82.3,5.58-1.59,3.26-3.5,7.09-6.47,10.66-9.69a100.41,100.41,0,0,0,8.48-8c1-1.11,1.16-3.31,1-4.94-.21-2-2-2.28-3.78-2.08-2.56.29-5.11.62-7.62.93.33-2,.68-4.22,1.07-6.44.68-3.89-.8-4.9-4.69-4.47-3.65.41-4.83,3.44-6.93,5.35-3.52,3.21-6.33,7.18-9.76,10.5s-4.76,7.14-5.27,11.7c-.34,3,.06,6.34-2.72,9-4.66,4.37-9,9.12-13.36,13.78A16.75,16.75,0,0,0,355.5,164.08Zm-14.76,1.25c.21-1.5.11-3.14.68-4.49,1.91-4.51,3.89-9.06,8.26-11.85s8.81-5.11,14.28-4a4.91,4.91,0,0,0,3-.05,7.49,7.49,0,0,0,2.67-2.85c.13-.24-1.27-1.82-2.15-2-1.56-.38-3.28,0-4.89-.26-4.1-.58-7.85,1-11,2.9-7,4.18-12.09,10.27-14.13,18.48a19.16,19.16,0,0,0,2.42,15.29,16.93,16.93,0,0,0,10,7.14,15.43,15.43,0,0,0,7.06.62c9.6-1.94,17.44-6.63,21.82-15.79,2.23-4.68,3.43-9.67,2-14.88-.23-.86-1.15-1.54-1.74-2.3-1,.89-2.6,1.65-2.81,2.69-.36,1.76.51,3.75.28,5.56a25.15,25.15,0,0,1-6.72,14.35c-3.95,4.21-9,6-14.53,6.25a13.56,13.56,0,0,1-7.27-1.55C343.16,175.7,340.3,171.36,340.74,165.33Zm15.47,5.56a4.92,4.92,0,0,1-5.34-2.33c-1.72-2.67-.71-8.52,2-10.25,1.71-1.1,3.92-1.42,5.67-2.47,1.23-.74,2.07-2.14,3.08-3.24-.9-.6-1.94-1.87-2.66-1.71-7.18,1.62-13.63,6.93-13,16,.34,5,5,8.31,10,8.31,6.06,0,12.21-5.23,13.77-11.8.34-1.43.94-3.72-1.4-3.86-1-.06-2.07,1.87-3.07,2.93-.13.14,0,.52,0,.76C364.14,167,361.38,171.62,356.21,170.89Z" transform="translate(-68.28 -99.52)"/><path class="cls-1" d="M76.5,179.72c2.54-10.65,8.11-19.82,14-28.86,1.63-2.5,2.91-5.18,2.46-8.48-.36-2.61,2.92-4.31,6.16-3.46,5.09,1.34,9.09,7.08,8.54,12.72,1.55-1.24,2.85-2.4,4.27-3.38,3.47-2.4,6.92-4.83,10.52-7a10.62,10.62,0,0,1,9-.83c4.19,1.33,5.75,3.9,5.83,10,2.29-1.62,4.37-3.23,6.6-4.62a68,68,0,0,1,8.75-4.94,12,12,0,0,1,6-.79c5.06.65,7.37,4.58,6.09,9.94-1.45,6-5.27,10.76-8.81,15.64-3,4.18-5.93,8.46-8.81,12.75a8.87,8.87,0,0,0-1.3,3.06c-.54,2.6,1.26,4.21,3.62,3a24,24,0,0,0,6.37-4.3C161.88,174,168.17,168,172.09,160c2.08-4.24,4.82-8.15,7.08-12.3a8.62,8.62,0,0,0,.85-3.95c0-3.65,2-5.57,5.5-4.63a13,13,0,0,1,8.94,7.6c1.52,3.54-.34,6.42-2.26,9.07-3.73,5.17-7.84,10.07-11.45,15.32a55,55,0,0,0-4.46,9,8,8,0,0,0-.46,3.29c0,2.13,1.15,2.85,3,1.77a20.3,20.3,0,0,0,4.95-3.69q12-13.21,23.7-26.65c3.27-3.77,6.18-7.86,9.23-11.82,3.59-4.67,7.8-5.49,12-2.32,2.79,2.11,3.49,5.27,1.53,8.19-3.55,5.29-7.26,10.47-10.91,15.69-3.06,4.37-6.19,8.71-9.2,13.12a10,10,0,0,0-1.62,3.75,3.65,3.65,0,0,0,.73,3,3.33,3.33,0,0,0,3,.1,27.65,27.65,0,0,0,6-4.31c5-5,9.65-10.34,14.59-15.4,1-1,2.64-1.45,4-2.15.09,1.63.59,3.39.16,4.87a12.32,12.32,0,0,1-2.81,4.83q-7.35,7.82-15,15.35c-5.93,5.85-10.2,6.12-17.15,1.07l-7.06,9.09c6,0,11.41-.28,16.78.12a16.92,16.92,0,0,1,7.67,2.62c4.59,3,4.69,9.79.62,13.5-1.28,1.17-2.37,1-3.65,0-7.64-6-16.47-8.45-26-8.57a6.26,6.26,0,0,0-3.76,1.53c-5.95,5.09-11.56,10.59-17.72,15.41a23.5,23.5,0,0,1-15.85,5.36c-5.35-.28-9.34-3.79-10.05-8.68a7,7,0,0,1,3.1-7,61.79,61.79,0,0,1,12-7c5.24-2.1,10.89-3.16,16.31-4.84a7.4,7.4,0,0,0,3.5-2.22c3.36-4.26,6.52-8.68,9.74-13.05.14-.19.2-.43.13-.27-3.69,2.15-7.5,4.76-11.64,6.69A8.81,8.81,0,0,1,164,186.22a38.23,38.23,0,0,1-.71-4.85,18.94,18.94,0,0,0-1.48,1.19c-2.15,2.12-4.23,4.31-6.42,6.38-3.94,3.72-8.72,4.45-13,1.71-5.32-3.4-9-10.08-6.64-17.47,2.22-7,6.28-12.78,10.28-18.71a19.56,19.56,0,0,0,1.62-4.31c-1.43.53-3.07.77-4.27,1.63-8.63,6.19-17.29,12.44-22.3,22.21a51.54,51.54,0,0,0-3.28,9.68c-.39,1.39,0,2.58,2,2.93,1.78.32,1.64,2.44-.17,4A8.44,8.44,0,0,1,107,187.72a14.15,14.15,0,0,1-1.18-6.71c.42-6.14,3.13-11.6,5.93-16.95,2-3.73,4.29-7.26,6.32-11a9.58,9.58,0,0,0,.53-3c-.94.24-2.13.19-2.77.75-7.43,6.55-15.13,12.86-22,20-2.79,2.9-3.85,7.57-5.3,11.58-.57,1.57-.8,3.77,2.16,4.23,1.64.26,1.6,2.24,0,3.67a8,8,0,0,1-8,1.51c-3.27-1-5-3.42-6.23-6.42Zm92.62,29.36-.34-.7c-4.18,1.44-8.44,2.69-12.51,4.41a26.35,26.35,0,0,0-6.43,4.21,3.36,3.36,0,0,0-.79,3.14,5.17,5.17,0,0,0,3.18,2,5.06,5.06,0,0,0,3.16-.83C160.86,218.26,165,213.72,169.12,209.08Z" transform="translate(-68.28 -99.52)"/><path class="cls-1" d="M289.52,170.12c-7.32-.94-14.53-1.9-21.75-2.75a2.67,2.67,0,0,0-2.11.9c-3.32,4.82-6.91,9.52-9.63,14.67-1.71,3.23-2.24,7.15-3,10.83a2.94,2.94,0,0,0,2.45,3.83c2,.44,1.59,2.31.65,3.27a7.21,7.21,0,0,1-3.94,2c-4.84.6-9.54-3.52-10.16-8.6-.68-5.58.66-10.81,3-15.8,2.48-5.38,5.19-10.64,7.83-16-1.69-1-3.46-1.89-5.08-3-8-5.44-10.46-12.51-7-21.56,5.53-14.41,15.79-24.65,29.26-31.8a43.9,43.9,0,0,1,20.76-5.58c7.23,0,12.94,5.78,11.71,12.06a22.17,22.17,0,0,1-3.32,7.77c-5.86,8.82-11.93,17.51-18,26.18-3.71,5.27-7.61,10.41-11.66,15.94a99.08,99.08,0,0,0,22.42,1.7,3.42,3.42,0,0,0,2.26-1.37q16.1-23.44,32.06-47a29,29,0,0,0,3-5.69,10.35,10.35,0,0,0,.6-4.41c-.2-2.7.83-4.09,3.57-4.2,6.86-.29,12.49,7.86,9.63,14.15a52.3,52.3,0,0,1-4.43,7.57q-12.69,18.73-25.5,37.37a8.08,8.08,0,0,0-1.44,3.22c3.65-.65,7.3-1.26,10.94-2,1.6-.31,3.13-1.09,4.73-1.22a2.12,2.12,0,0,0,2.18-1.95c2.33-9.6,7.79-17.08,15.39-23.26A37.13,37.13,0,0,1,362,127.62a39.81,39.81,0,0,1,8.54-.12c1.56.06,1.95,2.29.93,3.85-1.44,2.2-3.69,1.55-5.58,1.55a30.14,30.14,0,0,0-18.29,6,39.42,39.42,0,0,0-10.65,11.33,30.14,30.14,0,0,0-4.73,15.51c-.14,10.65,4.67,18.52,15.41,22.19,5.35,1.83,11,1.12,16.42-.61a34,34,0,0,0,16.68-11.9c3.13-4,5.84-8.17,6.51-13.31a87.91,87.91,0,0,0,.73-9.42,3.62,3.62,0,0,1,2.36-3.56c2.15-1,3.19-.44,3.39,1.89.65,7.61-1.55,14.37-5.29,21a39.35,39.35,0,0,1-10.28,11.91c-6,4.63-12.68,8.52-20.77,8.18-4.15-.17-8.49,0-12.38-1.21-3.31-1-6.41-3.4-9.05-5.79a20,20,0,0,1-6.47-11.91c-.35-2.26-.45-4.56-.68-7-6.1,3.47-12.93,3.44-19.69,3.58a4,4,0,0,0-3.77,2c-2.25,3.57-4.67,7-6.92,10.61a43.08,43.08,0,0,0-2.77,5.25c-5.11,11.34-.5,19.43,11.92,20.44a165.68,165.68,0,0,0,17.3.27c23.09-.54,45.75-4.41,68.38-8.7,18.4-3.48,37-5.94,55.74-5.39a117.35,117.35,0,0,1,18.86,2.6c2.41.47,4.75,2,6.8,3.52,2.95,2.15,3.52,5.16,2.07,8.51a17.65,17.65,0,0,1-1.38,2.48c-2.38,3.72-3.27,3.71-6.1.53-4.22-4.75-10-6.94-15.95-7.79a84.47,84.47,0,0,0-19.28-.84c-18.87,1.71-37.7,4-56.52,6.14-22.68,2.6-45.28,6.16-68.21,5.94-5.92-.06-11.67-.85-17-3.66-6.51-3.43-9.9-8.84-10.4-16.14a36.6,36.6,0,0,1,5.32-21.48C288.06,172.68,288.89,171.22,289.52,170.12Zm-33.27-13c.38-.46.62-.7.81-1q11.16-16.29,22.29-32.59c2.46-3.63,4.81-7.34,7.08-11.08.42-.69.24-1.74.34-2.62-.89,0-2-.42-2.63-.06a36.5,36.5,0,0,0-6.45,4.17c-9.54,8.29-17.38,18.12-24.75,28.32a19,19,0,0,0-2.35,5.4,5.48,5.48,0,0,0,1.56,5.91C253.44,154.78,254.84,155.89,256.25,157.09Z" transform="translate(-68.28 -99.52)"/><path class="cls-1" d="M524.85,166.15c1,5.36-1.11,8.55-4.43,10.95-4.86,3.51-9.79,7-14.93,10a32.64,32.64,0,0,1-15.53,5c-6.41.2-12.59-3.37-13.48-11a7,7,0,0,0-.61-1.62c-7.29,4.76-14.37,9.82-23,11.89a17.4,17.4,0,0,1-11.61-.7c-6.23-2.76-7.7-10.88-7-15.34.38-2.3,1.07-4.55,1.58-6.68l-7-1c-3.89,5-7.45,10.16-11.71,14.7-3.29,3.51-6.68,7.18-11.84,8.39-5.92,1.38-12.18-2.59-14.18-7.8-2.23-5.8-.59-11.22,1.37-16.55a100.13,100.13,0,0,1,16.17-27.95,140.51,140.51,0,0,1,14.76-15.26,15.83,15.83,0,0,1,7.45-3.31c5.34-1.05,8.45,4,6.42,8.77a43.88,43.88,0,0,1-6.39,10.52,132.79,132.79,0,0,1-20.43,19.76c-1.68,1.33-2.47,4-3.28,6.16-1.67,4.49-3.1,9.06-4.55,13.63a6.65,6.65,0,0,0-.06,2.32c.16,2.8,1.54,3.74,3.67,2,3.82-3.2,7.23-6.9,10.79-10.41a17.19,17.19,0,0,0,1.83-2.13c2.19-3,3.9-5.65,1.5-9.89-2.6-4.57,1.31-10.45,6.63-11.3a9.54,9.54,0,0,1,3.22-.36c3.25.67,4.29,3.12,3.28,7.31-.25,1-.58,2.07-.9,3.21l9.82-.83c3.94-2.91,8.27-6.33,12.82-9.42,6.5-4.43,13.23-2.5,16.6,4.54,1.56,3.26.47,8.12-2.47,11.28-4.49,4.85-10.34,7.23-16.48,9.07-1.69.51-3.46.71-5.19,1.09-1.94.42-4,4.21-3.54,6.58.45,2.55,2.55,3.88,5.45,3.24A55.8,55.8,0,0,0,476.17,171a7.48,7.48,0,0,0,1.67-2.22c4.32-9.28,11.81-15.38,20.41-20.35,7.33-4.24,13.66.14,15.6,5.84,1.37,4,.22,7.68-2.71,10.76-5.12,5.38-11.68,8-18.72,9.48-3.36.7-5.79,1.64-6.19,5.63-.32,3.26,1.59,5.49,4.84,5,6.65-1,12.57-4,18.15-7.48,4.08-2.52,7.52-6.06,11.33-9A33.54,33.54,0,0,1,524.85,166.15Zm-75.08,3.93c7-3.31,13.3-7.33,16.2-15C459.08,158.48,454,163.86,449.77,170.08Zm58.11-15c-6.89,3.4-11.92,8.8-16.21,15C498.65,166.78,505,162.77,507.88,155.07Zm-89.51-10c7.59-5.29,15.17-16.27,14.1-20.63Z" transform="translate(-68.28 -99.52)"/><path class="cls-1" d="M355.5,164.08a16.75,16.75,0,0,1,1.84-3.06c4.39-4.66,8.7-9.41,13.36-13.78,2.78-2.61,2.38-5.9,2.72-9,.51-4.56,1.89-8.42,5.27-11.7s6.24-7.3,9.76-10.5c2.1-1.92,3.28-4.95,6.93-5.35,3.89-.43,5.37.58,4.69,4.47-.39,2.22-.74,4.46-1.07,6.44,2.51-.31,5.06-.64,7.62-.93,1.75-.2,3.58.12,3.78,2.08.17,1.63,0,3.83-1,4.94a100.41,100.41,0,0,1-8.48,8c-3.56,3.22-7.4,6.19-10.66,9.69-1.76,1.89-3.76,1.07-5.58,1.59-2.65.76-5.53.72-8.27,1.21a4.52,4.52,0,0,0-2,1.41q-7,6.89-13.85,13.85C359.27,164.79,358,165.65,355.5,164.08Zm38.12-46.5c-4.09,4.4-7.82,8.69-11.87,12.66-2.38,2.33-3.57,5.06-2.51,8.65,4.07-4.19,8-8.24,11.94-12.33a4,4,0,0,0,.93-1.77C392.64,122.53,393.07,120.24,393.62,117.58ZM382,142c3.47-.28,6.13-.35,8.35-2.59,4-4,8.24-7.86,12.63-12-1.59.31-2.84.47-4,.8-1.59.45-3.53.61-4.65,1.63C390.23,133.55,386.45,137.56,382,142Z" transform="translate(-68.28 -99.52)"/><path class="cls-1" d="M340.74,165.33c-.44,6,2.42,10.37,7.27,13.25a13.56,13.56,0,0,0,7.27,1.55c5.51-.29,10.59-2,14.53-6.25a25.15,25.15,0,0,0,6.72-14.35c.23-1.82-.63-3.8-.28-5.56.21-1,1.83-1.8,2.81-2.69.6.76,1.51,1.44,1.74,2.3,1.39,5.22.19,10.2-2,14.88-4.37,9.16-12.22,13.86-21.82,15.79a15.43,15.43,0,0,1-7.06-.62,16.93,16.93,0,0,1-10-7.14,19.16,19.16,0,0,1-2.42-15.29c2-8.21,7.08-14.31,14.13-18.48,3.17-1.88,6.92-3.48,11-2.9,1.61.23,3.33-.12,4.89.26.88.21,2.29,1.8,2.15,2A7.49,7.49,0,0,1,367,145a4.91,4.91,0,0,1-3,.05c-5.46-1.12-9.94,1.22-14.28,4s-6.35,7.34-8.26,11.85C340.85,162.19,340.95,163.82,340.74,165.33Z" transform="translate(-68.28 -99.52)"/><path class="cls-1" d="M356.21,170.89c5.17.73,7.93-3.87,9-7.71.07-.24-.09-.62,0-.76,1-1.06,2.11-3,3.07-2.93,2.35.14,1.74,2.43,1.4,3.86-1.56,6.57-7.71,11.79-13.77,11.8-5.06,0-9.71-3.35-10-8.31-.61-9,5.84-14.34,13-16,.72-.16,1.77,1.11,2.66,1.71-1,1.1-1.85,2.5-3.08,3.24-1.75,1.06-4,1.38-5.67,2.47-2.71,1.73-3.72,7.58-2,10.25A4.92,4.92,0,0,0,356.21,170.89Z" transform="translate(-68.28 -99.52)"/><path class="cls-1" d="M169.12,209.08c-4.08,4.64-8.25,9.18-13.73,12.27a5.06,5.06,0,0,1-3.16.83,5.17,5.17,0,0,1-3.18-2,3.36,3.36,0,0,1,.79-3.14,26.35,26.35,0,0,1,6.43-4.21c4.06-1.72,8.33-3,12.51-4.41Z" transform="translate(-68.28 -99.52)"/><path class="cls-1" d="M256.25,157.09c-1.41-1.2-2.82-2.31-4.11-3.53a5.48,5.48,0,0,1-1.56-5.91,19,19,0,0,1,2.35-5.4c7.37-10.2,15.21-20,24.75-28.32a36.5,36.5,0,0,1,6.45-4.17c.67-.37,1.74,0,2.63.06-.1.88.07,1.93-.34,2.62-2.28,3.75-4.62,7.46-7.08,11.08q-11.09,16.33-22.29,32.59C256.87,156.39,256.63,156.63,256.25,157.09Z" transform="translate(-68.28 -99.52)"/><path class="cls-1" d="M449.77,170.08c4.26-6.22,9.31-11.6,16.2-15C463.07,162.75,456.75,166.77,449.77,170.08Z" transform="translate(-68.28 -99.52)"/><path class="cls-1" d="M507.88,155.07c-2.9,7.7-9.23,11.7-16.21,15C496,163.87,501,158.47,507.88,155.07Z" transform="translate(-68.28 -99.52)"/><path class="cls-1" d="M418.38,145.09l14.1-20.63C433.54,128.81,426,139.79,418.38,145.09Z" transform="translate(-68.28 -99.52)"/><path class="cls-1" d="M393.62,117.58c-.55,2.66-1,4.95-1.51,7.21a4,4,0,0,1-.93,1.77c-3.91,4.09-7.87,8.14-11.94,12.33-1.06-3.59.13-6.32,2.51-8.65C385.8,126.28,389.52,122,393.62,117.58Z" transform="translate(-68.28 -99.52)"/><path class="cls-1" d="M382,142c4.45-4.46,8.24-8.47,12.3-12.17,1.12-1,3.06-1.18,4.65-1.63,1.2-.34,2.45-.5,4-.8-4.39,4.15-8.62,8-12.63,12C388.12,141.67,385.47,141.74,382,142Z" transform="translate(-68.28 -99.52)"/><text class="cls-2" transform="translate(168.38 188.48)"><tspan xml:space="preserve">    </tspan></text><path class="cls-1" d="M255,258.23V225.56h79.65v32.67Zm31.52-12c0,.14,0,.26-.05.38a3.8,3.8,0,0,0,1.78,4,2.81,2.81,0,0,0,3.56-.46c.53-.56,1-1.13,1.52-1.65a17.34,17.34,0,0,0,1.42,1.75,2.78,2.78,0,0,0,4.06-.16l1.37-1.48c1.47,2.91,3.21,3.48,6.16,2.11A9.19,9.19,0,0,0,310.2,247c.62-1,.58-1,1.79-.71a5.21,5.21,0,0,0-.21.68,11.59,11.59,0,0,0-.36,2.47,1.88,1.88,0,0,0,2.63,1.65,12.27,12.27,0,0,0,1.79-.91c.92-.56,1.8-1.17,2.78-1.81a10,10,0,0,0,0,1c.13,1.16,1.37,2.17,2.3,1.86a5.17,5.17,0,0,0,1.44-.64c3-2.18,6-4.36,8.93-6.61a7.09,7.09,0,0,0,1.48-1.84,1.18,1.18,0,0,0-.33-1.66c-1-.85-2-.67-2.89.51-1.62,2.09-3.24,4.2-4.92,6.24a20.3,20.3,0,0,1-2.3,2.18,2.05,2.05,0,0,1-.72.25c-.06-.26-.24-.57-.17-.79a10.18,10.18,0,0,1,.94-2.31c.67-1.05,1.52-2,2.25-3a2.37,2.37,0,0,0-1.68-3.82c-.74-.09-1.12.27-1.15,1a2.57,2.57,0,0,1-.27,1.16,17.12,17.12,0,0,1-1.83,2.75c-1.44,1.61-3,3.13-4.53,4.65-.2.2-.58.2-.88.29,0-.32-.2-.68-.11-1a10.66,10.66,0,0,1,1.05-2.27c.85-1.26,1.84-2.41,2.71-3.65a2.3,2.3,0,0,0-1.28-3.68c-.82-.26-1.64.15-1.56.84a3.21,3.21,0,0,1-.67,2.08c-.42.7-.92,1.36-1.29,2.09s-1.08.89-1.8,1c-.08-1.34.81-2.6,0-3.88a1.5,1.5,0,0,0-.1-2.48,2.65,2.65,0,0,0-2.14-.37,11.22,11.22,0,0,0-8.41,7,12.51,12.51,0,0,1-2.64,3.46,2.06,2.06,0,0,1-1,.52c-.32.07-.82.07-1-.12a1.18,1.18,0,0,1-.16-1,14.79,14.79,0,0,1,1.33-2.55c2.22-3.27,4.49-6.49,6.73-9.75a8.06,8.06,0,0,0,1-1.77,2.46,2.46,0,0,0-2.24-3c-.55,0-.89.23-.87.89a2.54,2.54,0,0,1-.27,1.35c-1.48,2.31-3,4.56-4.54,6.86a57.07,57.07,0,0,0-3,5,15.93,15.93,0,0,1-2.82,3.62,2,2,0,0,1-1,.53,1.35,1.35,0,0,1-1-.12,1.16,1.16,0,0,1-.13-1,14.35,14.35,0,0,1,1.3-2.48c2.22-3.27,4.49-6.49,6.73-9.75a8.25,8.25,0,0,0,1-1.83,2.47,2.47,0,0,0-2.2-3c-.71,0-.92.3-.9,1a2.15,2.15,0,0,1-.23,1.15c-1.12,1.82-2.29,3.61-3.46,5.41-1.3,2-2.6,4-3.94,6-.2.29-.63.41-1.08.68.4-3.55.4-3.55,0-4a1.31,1.31,0,0,0,.64-1.47,1.67,1.67,0,0,0-1.33-1.37,4,4,0,0,0-1.21-.1c-4.09.4-8.46,4.48-9.15,8.54-.55,3.19,2,5.32,5,4.37a8.72,8.72,0,0,0,5.06-4.46C285.51,246.14,285.84,245.94,286.52,246.28Zm-12.88-5.09c.15-.24.27-.44.41-.63l5.3-7.49a4.89,4.89,0,0,0,.55-.93,1.74,1.74,0,0,0-1.43-2.61,6.61,6.61,0,0,0-1.94,0,41.37,41.37,0,0,0-14.82,5.18,8.84,8.84,0,0,0-2.16,1.89,3.34,3.34,0,0,0-.45,3.42,1.39,1.39,0,0,0,1.93.82.9.9,0,0,0,.22-.63c-.91-.57-.34-1.12.09-1.49a20.36,20.36,0,0,1,2.92-2.21,81.1,81.1,0,0,1,12-5.54,1.35,1.35,0,0,1,.39,0l-.47.73c-1.82,2.69-3.69,5.35-5.43,8.1-.67,1.05-1.36,1.73-2.66,1.59a3,3,0,0,0-1,.12,27,27,0,0,0-3.26.88,1.75,1.75,0,0,0-1.23,2.18,2.77,2.77,0,0,0,1.09,1.49c.56.33.8-.42,1.11-.78a6.54,6.54,0,0,1,3.77-2.14c-.65,1.1-1.28,2-1.76,3-.86,1.8-1.66,3.62-2.41,5.47a2.7,2.7,0,0,0,.1,2.38,2.07,2.07,0,0,0,2.32,1.06,1.4,1.4,0,0,0,.66-.66c0-.08-.32-.35-.45-.56s-.33-.47-.29-.66a9.51,9.51,0,0,1,.8-2.66c1.47-2.46,3.09-4.82,4.62-7.24a1,1,0,0,1,1.08-.5c.93.13,1.86.26,2.79.35.63.06.9-.32.54-.83a2.25,2.25,0,0,0-1.06-.77A11.12,11.12,0,0,0,273.64,241.19Z" transform="translate(-68.28 -99.52)"/><path class="cls-1" d="M286.52,246.28c-.68-.34-1-.14-1.35.48a8.72,8.72,0,0,1-5.06,4.46c-3.09,1-5.59-1.18-5-4.37.7-4.06,5.06-8.14,9.15-8.54a4,4,0,0,1,1.21.1,1.67,1.67,0,0,1,1.33,1.37,1.31,1.31,0,0,1-.64,1.47c.44.44.44.44,0,4,.45-.27.89-.39,1.08-.68,1.34-2,2.64-4,3.94-6,1.17-1.79,2.34-3.59,3.46-5.41a2.15,2.15,0,0,0,.23-1.15c0-.69.19-1,.9-1a2.47,2.47,0,0,1,2.2,3,8.25,8.25,0,0,1-1,1.83c-2.23,3.26-4.51,6.48-6.73,9.75a14.35,14.35,0,0,0-1.3,2.48,1.16,1.16,0,0,0,.13,1,1.35,1.35,0,0,0,1,.12,2,2,0,0,0,1-.53,15.93,15.93,0,0,0,2.82-3.62,57.07,57.07,0,0,1,3-5c1.49-2.3,3.06-4.55,4.54-6.86a2.54,2.54,0,0,0,.27-1.35c0-.65.32-.86.87-.89a2.46,2.46,0,0,1,2.24,3,8.06,8.06,0,0,1-1,1.77c-2.23,3.26-4.51,6.48-6.73,9.75a14.79,14.79,0,0,0-1.33,2.55,1.18,1.18,0,0,0,.16,1c.17.19.67.19,1,.12a2.06,2.06,0,0,0,1-.52,12.51,12.51,0,0,0,2.64-3.46,11.22,11.22,0,0,1,8.41-7,2.65,2.65,0,0,1,2.14.37,1.5,1.5,0,0,1,.1,2.48c.83,1.27-.05,2.54,0,3.88.72-.12,1.4-.21,1.8-1s.87-1.39,1.29-2.09a3.21,3.21,0,0,0,.67-2.08c-.08-.69.74-1.1,1.56-.84a2.3,2.3,0,0,1,1.28,3.68c-.88,1.24-1.87,2.39-2.71,3.65a10.66,10.66,0,0,0-1.05,2.27c-.1.27.06.63.11,1,.3-.09.69-.1.88-.29,1.54-1.52,3.09-3,4.53-4.65a17.12,17.12,0,0,0,1.83-2.75,2.57,2.57,0,0,0,.27-1.16c0-.73.41-1.09,1.15-1a2.37,2.37,0,0,1,1.68,3.82c-.74,1-1.59,1.95-2.25,3a10.18,10.18,0,0,0-.94,2.31c-.07.22.11.52.17.79a2.05,2.05,0,0,0,.72-.25,20.3,20.3,0,0,0,2.3-2.18c1.69-2,3.3-4.14,4.92-6.24.91-1.18,1.86-1.36,2.89-.51a1.18,1.18,0,0,1,.33,1.66A7.09,7.09,0,0,1,331.3,244c-2.94,2.25-5.94,4.43-8.93,6.61a5.17,5.17,0,0,1-1.44.64c-.93.3-2.17-.71-2.3-1.86a10,10,0,0,1,0-1c-1,.64-1.86,1.26-2.78,1.81a12.27,12.27,0,0,1-1.79.91,1.88,1.88,0,0,1-2.63-1.65,11.59,11.59,0,0,1,.36-2.47,5.21,5.21,0,0,1,.21-.68c-1.21-.3-1.18-.28-1.79.71a9.19,9.19,0,0,1-3.86,3.78c-3,1.37-4.69.79-6.16-2.11l-1.37,1.48a2.78,2.78,0,0,1-4.06.16,17.34,17.34,0,0,1-1.42-1.75c-.48.52-1,1.09-1.52,1.65a2.81,2.81,0,0,1-3.56.46,3.8,3.8,0,0,1-1.78-4C286.49,246.54,286.5,246.42,286.52,246.28Zm-.7-5.12c-.08-1-.41-1.18-1.28-.85a9.53,9.53,0,0,0-4,3.13,10.38,10.38,0,0,0-2.53,5,1.83,1.83,0,0,0,.37,1.48,1.87,1.87,0,0,0,1.53,0,8.34,8.34,0,0,0,3.41-2.82,1.6,1.6,0,0,0,.13-2.11,2,2,0,0,1,0-2.18A3.18,3.18,0,0,1,285.81,241.16Zm17.27,7.72c0,1,.55,1.43,1.57,1.15a3.32,3.32,0,0,0,.67-.25,9.43,9.43,0,0,0,3.22-2.84,1.5,1.5,0,0,0,.09-1.92,2.15,2.15,0,0,1,.45-2.92,8.54,8.54,0,0,1,1.42-.79c.18-.11.44-.38.4-.47s-.3-.56-.52-.61a1.59,1.59,0,0,0-.89.19,11.14,11.14,0,0,0-4.81,4.44A8.37,8.37,0,0,0,303.08,248.87Z" transform="translate(-68.28 -99.52)"/><path class="cls-1" d="M273.64,241.19a11.12,11.12,0,0,1,1.82.3,2.25,2.25,0,0,1,1.06.77c.36.51.09.89-.54.83-.93-.09-1.86-.22-2.79-.35a1,1,0,0,0-1.08.5c-1.53,2.42-3.15,4.79-4.62,7.24a9.51,9.51,0,0,0-.8,2.66c0,.19.16.45.29.66s.5.48.45.56a1.4,1.4,0,0,1-.66.66,2.07,2.07,0,0,1-2.32-1.06,2.7,2.7,0,0,1-.1-2.38c.75-1.84,1.55-3.67,2.41-5.47.47-1,1.11-1.91,1.76-3a6.54,6.54,0,0,0-3.77,2.14c-.31.35-.56,1.11-1.11.78a2.77,2.77,0,0,1-1.09-1.49,1.75,1.75,0,0,1,1.23-2.18,27,27,0,0,1,3.26-.88,3,3,0,0,1,1-.12c1.31.14,2-.54,2.66-1.59,1.74-2.74,3.61-5.4,5.43-8.1l.47-.73a1.35,1.35,0,0,0-.39,0,81.1,81.1,0,0,0-12,5.54,20.36,20.36,0,0,0-2.92,2.21c-.43.37-1,.93-.09,1.49a.9.9,0,0,1-.22.63,1.39,1.39,0,0,1-1.93-.82,3.34,3.34,0,0,1,.45-3.42,8.84,8.84,0,0,1,2.16-1.89,41.37,41.37,0,0,1,14.82-5.18,6.61,6.61,0,0,1,1.94,0,1.74,1.74,0,0,1,1.43,2.61,4.89,4.89,0,0,1-.55.93l-5.3,7.49C273.91,240.74,273.79,240.95,273.64,241.19Z" transform="translate(-68.28 -99.52)"/><path class="cls-1" d="M285.81,241.16a3.18,3.18,0,0,0-2.4,1.6,2,2,0,0,0,0,2.18,1.6,1.6,0,0,1-.13,2.11,8.34,8.34,0,0,1-3.41,2.82,1.87,1.87,0,0,1-1.53,0,1.83,1.83,0,0,1-.37-1.48,10.38,10.38,0,0,1,2.53-5,9.53,9.53,0,0,1,4-3.13C285.41,240,285.73,240.17,285.81,241.16Z" transform="translate(-68.28 -99.52)"/><path class="cls-1" d="M303.08,248.87a8.37,8.37,0,0,1,1.6-4,11.14,11.14,0,0,1,4.81-4.44,1.59,1.59,0,0,1,.89-.19c.22.05.43.37.52.61s-.23.37-.4.47a8.54,8.54,0,0,0-1.42.79,2.15,2.15,0,0,0-.45,2.92,1.5,1.5,0,0,1-.09,1.92,9.43,9.43,0,0,1-3.22,2.84,3.32,3.32,0,0,1-.67.25C303.63,250.31,303,249.85,303.08,248.87Z" transform="translate(-68.28 -99.52)"/><rect class="cls-1" y="143.56" width="181.46" height="2.82"/><rect class="cls-1" x="270.96" y="143.56" width="181.46" height="2.82"/></svg>