<svg id="Calque_1" data-name="Calque 1" xmlns="http://www.w3.org/2000/svg" viewBox="0 0 585.52 585.46"><defs><style>.cls-1{fill:#49fec0;}.cls-2{fill:#3dfebd;}.cls-3{fill:#fefefe;}.cls-4{fill:#fdfefe;}.cls-5{fill:#fcfefd;}.cls-6{fill:#fafefc;}.cls-7{fill:#45febf;}.cls-8{fill:#4afec1;}.cls-9{fill:#4cfec1;}.cls-10{fill:#4bfec1;}.cls-11{fill:#4dfec1;}.cls-12{fill:#befee7;}.cls-13{fill:#8afed7;}</style></defs><title>mhb</title><path class="cls-1" d="M584.84,302.48c-.06,28.55-5.59,56.18-14.55,83.12a287,287,0,0,1-71,114.37,289.29,289.29,0,0,1-128,74.61,283.21,283.21,0,0,1-86.77,10.7c-68-2.45-128.48-25.09-180.56-69.08C56.58,476.11,25.14,425.74,9.36,365.66A275.85,275.85,0,0,1,.12,287.15c2-68.49,24.29-129.63,68.57-182.27C112.71,52.55,168.42,19.3,235.42,6,298.3-6.53,359.35.46,417.38,28.23,492.16,64,542.87,121.68,570.25,199.8c7.33,20.92,11.59,42.6,13.73,64.7a189.87,189.87,0,0,1,.91,19.92A129.88,129.88,0,0,0,584.84,302.48Z"/><path class="cls-2" d="M584.84,302.48a31.83,31.83,0,0,1,.05-18.06A63.6,63.6,0,0,1,584.84,302.48Z"/><path class="cls-3" d="M325.19,289.41c-7.46,4.69-15.31,4.08-22.87,4.65a6.59,6.59,0,0,0-5.69,3.16c-3.86,5.83-8.12,11.41-11,17.85-5.19,11.65-.8,20.09,11.64,22.48a66.06,66.06,0,0,0,12.93.94c29.07-.18,57.72-4,86.23-9.41,25.23-4.78,50.68-7.82,76.46-6.68,7.2.32,14.29,1.27,20.81,4.6,7.47,3.81,8.42,11.36,2.25,17.11-1.33,1.24-2.62,2.14-4.19.27-8.11-9.71-19.22-11.86-31-12.14-16-.38-31.87,1.83-47.75,3.61-36.69,4.11-73.09,11.18-110.22,10.84a77.84,77.84,0,0,1-9-.34c-18.72-2.36-27.75-15.72-23.48-34.26,1.51-6.56,5-12.2,8.56-18.76a90.64,90.64,0,0,1-25.44-2.48,2.59,2.59,0,0,0-3,1.08c-5,6.83-10.42,13.45-13.52,21.5a20.67,20.67,0,0,0-1.22,8.35,4.24,4.24,0,0,0,2,3.73c3,2.09,2.61,4.5-.8,5.94-5.31,2.23-12.73-2.2-14.06-8.49-1.14-5.39-.09-10.59,1.73-15.67a118.35,118.35,0,0,1,9.31-19.33c1.24-2.15,1.3-3.35-1.15-4.71-15.05-8.34-16.62-19.44-8.74-33.69,10.65-19.29,26.74-32.05,48.74-36.51a35.39,35.39,0,0,1,7.94-.61c10.88.3,16.36,8.82,11.7,18.67-4.43,9.37-10.74,17.62-16.79,26s-11.93,16.45-18,24.59c-1.76,2.36-2.17,3.62,1.5,3.87,6.14.42,12.26,1.13,18.39,1.68,3.15.28,5.8-.3,7.67-3.37,11.38-18.64,25.65-35.31,36.78-54.11,2.29-3.87,5.55-7.48,4.26-12.82-.5-2.08,1.27-3.46,3.73-3.68,8-.73,15,8.34,12.16,15.84-1.8,4.71-4.77,8.77-7.57,12.9-9,13.24-18,26.41-27,39.65-.89,1.32-2.31,2.44-2.26,4.52,6.82.6,13-2.29,19.46-3.42,1.9-.33,1.5-2.77,2-4.26,5.76-17.23,17.06-28.65,34.75-33.42A32.55,32.55,0,0,1,371.76,244c1.52.09,3.38,0,3.43,2s-1.7,2.77-3.46,2.93c-2.46.24-5,.13-7.41.41-21,2.41-37.67,23.08-35.56,44.05,1.68,16.69,18.81,26.9,36.37,21.67a42.87,42.87,0,0,0,30.64-40.55c0-.67,0-1.34,0-2,.13-1.66.84-3,2.65-3,2.06,0,2.22,1.63,2.29,3.18A41.53,41.53,0,0,1,397,291.08c-7.24,17-24.52,28.53-42.33,28.41-16.19-.12-28-11.3-29.09-27.52C325.52,291.33,325.38,290.71,325.19,289.41Z"/><path class="cls-3" d="M167.49,325.66c7.9-.18,14.84-.4,21.68.84,9.12,1.64,13.3,9,9.25,16.37-1.82,3.32-3.82,4.59-7.46,1.8-8.05-6.16-17.42-8.74-27.47-9.36a9.29,9.29,0,0,0-8.21,3.5c-7,7.84-14.84,14.83-24.3,19.73a24.85,24.85,0,0,1-14.47,3c-4.83-.55-8.58-2.89-10.29-7.56s.2-8.47,3.83-11.49a49.86,49.86,0,0,1,25.8-11.25c10.91-1.36,14.55-9.64,19.67-17-5.43,1.24-9.51,5.89-15.5,5.39-6.23-.52-9.25-3.62-11.7-12.44a90.76,90.76,0,0,1-5.77,7.16c-5.42,5.54-10.73,6.72-16.12,3.9-6-3.11-10.23-11.19-9.19-17.54,1.51-9.18,6.68-16.56,11.71-24,1.28-1.91,4.68-4.15,2.65-6.17s-4.31,1.32-6.17,2.68c-9.29,6.8-18.42,13.77-24.25,24.1a41.14,41.14,0,0,0-4,9.66c-.63,2.36-1.15,4.58,2.09,6.23s.78,3.69-.9,4.92c-5.89,4.31-14.68-.09-15.64-7.8C62,304.4,63.87,299,66.15,293.8A136.79,136.79,0,0,1,76.79,274c.75-1.16,2.36-2.52.77-3.88-1.24-1.06-2.49.36-3.49,1.11a188.18,188.18,0,0,0-25.83,23.51c-3.26,3.57-4.85,8.29-5.8,13.11-.42,2.13-.34,3.84,2,5,3.18,1.57,1.84,3.42-.11,4.91-3.25,2.49-6.9,2.44-10.38.72A10.13,10.13,0,0,1,28,308.32c.35-6.95,2.76-13.37,5.94-19.43,2.93-5.6,6.39-10.91,9.58-16.37,2.08-3.56,4.36-6.93,3.85-11.55-.37-3.34,3.88-5.36,8-3.78,6,2.3,9.95,6.43,9.8,13.71,4.47-3.21,8.61-6.22,12.79-9.16a23.78,23.78,0,0,1,8.57-4c7.22-1.56,12.31,2.71,13.7,11.69,4.53-3,8.82-6.05,13.35-8.73,3.87-2.29,7.94-4.34,12.74-2.53s6.79,5.11,6,10.11c-.89,6-4,10.91-7.43,15.63-4.74,6.44-9.79,12.66-13.71,19.65-1.12,2-2.73,4.31-.41,6.33,2,1.76,4.21.29,6-.89a64.92,64.92,0,0,0,17.68-18.13c4.1-6.21,7.66-12.86,11.36-19.36,1.84-3.23,4-6.33,3.43-10.66-.43-3.27,3.66-5.07,7.57-3.82,9.72,3.1,12.57,11.68,6.51,20-4.5,6.2-9.31,12.17-13.8,18.37a23.65,23.65,0,0,0-4.94,12.36c-.08,1.15-.28,2.53.74,3.27,1.29.94,2.55.06,3.67-.67,5.8-3.76,10.42-8.84,14.92-14,9.89-11.27,19.46-22.79,28.45-34.8,4-5.35,8.27-6.59,12.84-4s5.68,6.59,3,11.3c-6.34,11-15.16,20.26-21.74,31.1-1.84,3-5.89,6.76-2.68,9.57,3.66,3.2,7.34-1.12,10-3.81,6.13-6.11,11.9-12.58,17.89-18.84,1.19-1.24,2.42-3.46,4.46-2.16,1.76,1.12,1,3.38.62,5.11a13.64,13.64,0,0,1-4,6.8c-6.19,6.3-12.3,12.67-18.67,18.79-5.12,4.92-10.26,5.36-16.29,1.54-2-1.27-3-1.32-4.34.73C171.83,320.29,169.89,322.52,167.49,325.66Z"/><path class="cls-3" d="M497.55,305c-8.22,5.32-16,10.77-25.37,13.26-15.72,4.19-25.67-5.39-22.18-21.34.35-1.61.91-3.18,1.37-4.75a6.72,6.72,0,0,0-.92-.52c-6.57-2.33-10.46.43-13.82,6.17-3.54,6-8.74,10.9-14.06,15.49-6.24,5.39-12.15,6.33-17.85,3-6.06-3.52-9.11-10.62-7.47-18.15,2-9.38,6.19-18,11-26.14a156.38,156.38,0,0,1,22.31-28.76,38.1,38.1,0,0,1,9.09-7c3.69-2,7.55-3.36,11,.08s2.46,7.34.43,11.06c-4.61,8.43-11,15.42-18,22-3.39,3.2-7.25,5.91-10.53,9.2-7.7,7.7-10,17.79-11.31,28.05-.38,2.93,1.74,4.79,4.89,2.65,7.6-5.15,12.91-12.43,17.92-19.92,1.45-2.17-.14-4.12-1-6.08a9.83,9.83,0,0,1,7.4-13.93c5.94-1,8.57,1.18,7.15,7-1.31,5.37.89,4.15,4.71,4.66,6.55.88,9.76-3.15,13.77-6.43a50.79,50.79,0,0,1,9.67-6.17c6.64-3.3,11.49-2.27,15.81,3.39,3.66,4.79,3.19,11-1.53,15.89-6.26,6.49-14.29,9.71-23,11.21-4.54.79-6.07,3.46-6.39,7.48-.26,3.29,1.36,5,4.58,5.26a15.65,15.65,0,0,0,6.37-.91,92.3,92.3,0,0,0,18.09-8.41c5-3,9.11-6.76,11.85-12.38,5.25-10.76,14.53-17.62,25.18-22.55,4.6-2.13,9.37-.52,12.93,3.67,3.71,4.36,4.16,8.9,1.12,13.81-4.32,7-11.53,9.8-18.72,12.53a54.3,54.3,0,0,1-6.28,1.62c-5,1.24-7.56,4.81-6.15,9.34,1.48,4.76,5.72,3.83,8.8,2.87,10.4-3.22,20.23-7.71,28.3-15.33a24.26,24.26,0,0,1,2.15-2.09c1.86-1.36,3.41-5.1,5.86-3.08,2.28,1.88.46,5.33-1.31,7.13C542.57,309,529.95,317.54,514,319.25,505.83,320.11,501.58,315.92,497.55,305Z"/><path class="cls-4" d="M407.82,229.4c.31,2.58-2.77,6.15-.29,8,1.55,1.18,5.32-.6,8.11-1,1.67-.22,3.33-.31,4.42,1.46a4,4,0,0,1-.63,5.08c-7.16,7.66-14.64,15-23.12,21.22-3,2.16-7,1.94-10.64,2.2a12.47,12.47,0,0,0-8.76,4c-4.46,4.71-9.18,9.19-13.91,13.64-1.28,1.2-2.71,4.16-4.65,2.08s1.09-3.4,2.32-4.74c3-3.31,6-6.8,9.49-9.57a21.74,21.74,0,0,0,8.61-17.57c0-1.79.17-3.91,1.12-5.3,6.21-9.11,14-16.82,22.06-24.29a3.34,3.34,0,0,1,4.18-.46C408,225.37,408.08,227.16,407.82,229.4Z"/><path class="cls-5" d="M355.79,309.59c-13.81-.06-22.88-11.1-20.31-24.71,2.67-14.13,14.12-25,27.69-26.31a24.31,24.31,0,0,1,5,0c1.71.19,4.22,0,3.86,2.66-.3,2.26-2.43,2.44-4.38,2.14-7.61-1.2-14.18,1.19-19.78,6.16-7.38,6.54-11.14,14.75-8.49,24.58,3.29,12.24,18.31,16.16,30,7.81,8.48-6.06,13.56-14.16,12-25.17-.3-2.08-.07-4,2.19-4.22s2.19,2,2.44,3.57C388.42,292.26,372.73,309.66,355.79,309.59Z"/><path class="cls-6" d="M345.62,288c-.06-7.43,6.53-15.13,13.76-16.15,1.22-.17,2.47-.35,3,.95.71,1.68-.6,2.39-1.87,2.88-1.08.42-2.25.59-3.33,1-4.94,1.84-8.51,6.88-7.94,11.45.51,4.06,2.7,6.76,6.95,7.26,4.85.57,10.05-3.07,11.8-8.16.43-1.25.62-2.59,1.12-3.81a2,2,0,0,1,2.37-1.34c1.12.32,1.27,1.34,1.29,2.41.15,8.41-11.81,17-19.75,14.13C348.23,296.9,345.66,293.23,345.62,288Z"/><path class="cls-7" d="M283.68,211.25h-9.75v-.5h9.55Z"/><path class="cls-2" d="M122.53,363.21h-7.68v-.49h7.76Z"/><path class="cls-1" d="M232.59,270a13.23,13.23,0,0,1,2.5-7.46c9.37-13.16,19.4-25.75,32-36a16.48,16.48,0,0,1,2.42-1.75c1.73-.94,3.83-2.48,5.46-.83s-.4,3.44-1.32,4.8c-10.11,15-20.28,30-30.63,44.87-1.21,1.73-1.49,5.88-4.71,4.44C235.31,276.66,232.41,274.13,232.59,270Z"/><path class="cls-8" d="M136.54,339c-5.54,6.3-10.23,11.34-16.34,14.83-2.49,1.43-5.21,2.11-7-.72s.53-4.61,2.53-6.1C121.52,342.75,128.28,340.94,136.54,339Z"/><path class="cls-9" d="M486.81,275.64c-2.79,8.27-11.16,15.79-20.2,18.46C472.19,286,478.49,279.71,486.81,275.64Z"/><path class="cls-10" d="M516.21,293.67c4.86-7.61,10.89-14,19.27-17.8C532.11,285.09,524.9,290.17,516.21,293.67Z"/><path class="cls-11" d="M429.83,264.48c5.36-8.14,10.33-16.56,17.31-23.57-1.68,10.65-9.84,17-16.41,24.43C429.86,265.66,429.4,265.53,429.83,264.48Z"/><path class="cls-12" d="M429.83,264.48l.91.86c-.3,1-1.25,2.27-1.87,1.73C427.7,266.09,428.94,265.17,429.83,264.48Z"/><path class="cls-9" d="M383.44,257.76c-.43-13.14,11.34-17.64,17.78-25.93C402,245.21,389.8,249.42,383.44,257.76Z"/><path class="cls-8" d="M411.89,244.53q-7.39,7.08-14.79,14.16c-2.77,2.64-6.26,2.56-10.18,2.72,5.7-5.9,11-11.55,16.52-17,.91-.89,2.81-.76,4.25-1.1C409.25,243.17,411.15,241.82,411.89,244.53Z"/><path class="cls-13" d="M411.89,244.53c-1-1.69-2.82-.73-4.2-1.19,1-1.09,2.44-.78,3.66-1.16.71-.22,1.7-.86,2.08.22S412.74,244.05,411.89,244.53Z"/></svg>